<svg width="48" height="48" viewBox="0 0 48 48" fill="none" xmlns="http://www.w3.org/2000/svg">
<path d="M41.6968 46.9185C43.1388 48.3605 45.4766 48.3605 46.9185 46.9186C48.3605 45.4766 48.3605 43.1388 46.9185 41.6968L29.2217 24L46.9185 6.30317C48.3605 4.86123 48.3605 2.52339 46.9185 1.08145C45.4766 -0.360482 43.1388 -0.360482 41.6968 1.08145L24 18.7783L6.30316 1.08145C4.86123 -0.360484 2.52339 -0.360484 1.08145 1.08145C-0.360484 2.52339 -0.360485 4.86123 1.08145 6.30316L18.7783 24L1.08145 41.6968C-0.360482 43.1388 -0.360482 45.4766 1.08145 46.9186C2.52339 48.3605 4.86123 48.3605 6.30317 46.9186L24 29.2217L41.6968 46.9185Z" fill="#F92464"/>
</svg>
